<svg width="1685" height="901" viewBox="0 0 1685 901" fill="none" xmlns="http://www.w3.org/2000/svg">
<line x1="1123.18" y1="0.643555" x2="1123.18" y2="900.644" stroke="#F6F6F6"/>
<line x1="1414.05" y1="0.643555" x2="1414.05" y2="900.644" stroke="#F6F6F6"/>
<line x1="1268.62" y1="0.643555" x2="1268.62" y2="900.644" stroke="#F6F6F6"/>
<line x1="1559.48" y1="0.643555" x2="1559.48" y2="900.644" stroke="#F6F6F6"/>
<line x1="1143.96" y1="0.643555" x2="1143.96" y2="900.644" stroke="#F6F6F6"/>
<line x1="1434.83" y1="0.643555" x2="1434.83" y2="900.644" stroke="#F6F6F6"/>
<line x1="1289.39" y1="0.643555" x2="1289.39" y2="900.644" stroke="#F6F6F6"/>
<line x1="1580.26" y1="0.643555" x2="1580.26" y2="900.644" stroke="#F6F6F6"/>
<line x1="1164.74" y1="0.643555" x2="1164.74" y2="900.644" stroke="#F6F6F6"/>
<line x1="1455.6" y1="0.643555" x2="1455.6" y2="900.644" stroke="#F6F6F6"/>
<line x1="1310.17" y1="0.643555" x2="1310.17" y2="900.644" stroke="#F6F6F6"/>
<line x1="1601.03" y1="0.643555" x2="1601.03" y2="900.644" stroke="#F6F6F6"/>
<line x1="1185.51" y1="0.643555" x2="1185.51" y2="900.644" stroke="#F6F6F6"/>
<line x1="1476.38" y1="0.643555" x2="1476.38" y2="900.644" stroke="#F6F6F6"/>
<line x1="1330.95" y1="0.643555" x2="1330.95" y2="900.644" stroke="#F6F6F6"/>
<line x1="1621.81" y1="0.643555" x2="1621.81" y2="900.644" stroke="#F6F6F6"/>
<line x1="1206.29" y1="0.643555" x2="1206.29" y2="900.644" stroke="#F6F6F6"/>
<line x1="1497.15" y1="0.643555" x2="1497.15" y2="900.644" stroke="#F6F6F6"/>
<line x1="1351.72" y1="0.643555" x2="1351.72" y2="900.644" stroke="#F6F6F6"/>
<line x1="1642.59" y1="0.643555" x2="1642.59" y2="900.644" stroke="#F6F6F6"/>
<line x1="1227.06" y1="0.643555" x2="1227.06" y2="900.644" stroke="#F6F6F6"/>
<line x1="1517.93" y1="0.643555" x2="1517.93" y2="900.644" stroke="#F6F6F6"/>
<line x1="1372.5" y1="0.643555" x2="1372.5" y2="900.644" stroke="#F6F6F6"/>
<line x1="1663.36" y1="0.643555" x2="1663.36" y2="900.644" stroke="#F6F6F6"/>
<line x1="1247.84" y1="0.643555" x2="1247.84" y2="900.644" stroke="#F6F6F6"/>
<line x1="1538.71" y1="0.643555" x2="1538.71" y2="900.644" stroke="#F6F6F6"/>
<line x1="1393.27" y1="0.643555" x2="1393.27" y2="900.644" stroke="#F6F6F6"/>
<line x1="1684.14" y1="0.643555" x2="1684.14" y2="900.644" stroke="#F6F6F6"/>
<line x1="1683.64" y1="1.14355" x2="1122.68" y2="1.14351" stroke="#F6F6F6"/>
<line x1="1683.64" y1="292.009" x2="1122.68" y2="292.009" stroke="#F6F6F6"/>
<line x1="1683.64" y1="146.576" x2="1122.68" y2="146.576" stroke="#F6F6F6"/>
<line x1="1683.64" y1="437.44" x2="1122.68" y2="437.44" stroke="#F6F6F6"/>
<line x1="1683.64" y1="21.9199" x2="1122.68" y2="21.9199" stroke="#F6F6F6"/>
<line x1="1683.64" y1="312.784" x2="1122.68" y2="312.784" stroke="#F6F6F6"/>
<line x1="1683.64" y1="167.353" x2="1122.68" y2="167.352" stroke="#F6F6F6"/>
<line x1="1683.64" y1="458.217" x2="1122.68" y2="458.217" stroke="#F6F6F6"/>
<line x1="1683.64" y1="42.6953" x2="1122.68" y2="42.6953" stroke="#F6F6F6"/>
<line x1="1683.64" y1="333.561" x2="1122.68" y2="333.56" stroke="#F6F6F6"/>
<line x1="1683.64" y1="188.128" x2="1122.68" y2="188.128" stroke="#F6F6F6"/>
<line x1="1683.64" y1="478.993" x2="1122.68" y2="478.993" stroke="#F6F6F6"/>
<line x1="1683.64" y1="63.4717" x2="1122.68" y2="63.4716" stroke="#F6F6F6"/>
<line x1="1683.64" y1="354.337" x2="1122.68" y2="354.337" stroke="#F6F6F6"/>
<line x1="1683.64" y1="208.904" x2="1122.68" y2="208.904" stroke="#F6F6F6"/>
<line x1="1683.64" y1="499.769" x2="1122.68" y2="499.768" stroke="#F6F6F6"/>
<line x1="1683.64" y1="84.248" x2="1122.68" y2="84.248" stroke="#F6F6F6"/>
<line x1="1683.64" y1="375.112" x2="1122.68" y2="375.112" stroke="#F6F6F6"/>
<line x1="1683.64" y1="229.681" x2="1122.68" y2="229.681" stroke="#F6F6F6"/>
<line x1="1683.64" y1="520.545" x2="1122.68" y2="520.545" stroke="#F6F6F6"/>
<line x1="1683.64" y1="105.023" x2="1122.68" y2="105.023" stroke="#F6F6F6"/>
<line x1="1683.64" y1="395.889" x2="1122.68" y2="395.889" stroke="#F6F6F6"/>
<line x1="1683.64" y1="250.456" x2="1122.68" y2="250.456" stroke="#F6F6F6"/>
<line x1="1683.64" y1="541.321" x2="1122.68" y2="541.321" stroke="#F6F6F6"/>
<line x1="1683.64" y1="125.8" x2="1122.68" y2="125.8" stroke="#F6F6F6"/>
<line x1="1683.64" y1="416.665" x2="1122.68" y2="416.665" stroke="#F6F6F6"/>
<line x1="1683.64" y1="271.232" x2="1122.68" y2="271.232" stroke="#F6F6F6"/>
<line x1="1683.64" y1="562.098" x2="1122.68" y2="562.098" stroke="#F6F6F6"/>
<line x1="1683.64" y1="852.963" x2="1122.68" y2="852.963" stroke="#F6F6F6"/>
<line x1="1683.64" y1="707.529" x2="1122.68" y2="707.529" stroke="#F6F6F6"/>
<line x1="1683.64" y1="582.874" x2="1122.68" y2="582.874" stroke="#F6F6F6"/>
<line x1="1683.64" y1="873.738" x2="1122.68" y2="873.738" stroke="#F6F6F6"/>
<line x1="1683.64" y1="728.307" x2="1122.68" y2="728.307" stroke="#F6F6F6"/>
<line x1="1683.64" y1="603.649" x2="1122.68" y2="603.649" stroke="#F6F6F6"/>
<line x1="1683.64" y1="894.516" x2="1122.68" y2="894.516" stroke="#F6F6F6"/>
<line x1="1683.64" y1="749.082" x2="1122.68" y2="749.082" stroke="#F6F6F6"/>
<line x1="1683.64" y1="624.426" x2="1122.68" y2="624.426" stroke="#F6F6F6"/>
<line x1="1683.64" y1="769.857" x2="1122.68" y2="769.857" stroke="#F6F6F6"/>
<line x1="1683.64" y1="645.201" x2="1122.68" y2="645.201" stroke="#F6F6F6"/>
<line x1="1683.64" y1="790.635" x2="1122.68" y2="790.635" stroke="#F6F6F6"/>
<line x1="1683.64" y1="665.979" x2="1122.68" y2="665.978" stroke="#F6F6F6"/>
<line x1="1683.64" y1="811.41" x2="1122.68" y2="811.41" stroke="#F6F6F6"/>
<line x1="1683.64" y1="686.754" x2="1122.68" y2="686.754" stroke="#F6F6F6"/>
<line x1="1683.64" y1="832.188" x2="1122.68" y2="832.187" stroke="#F6F6F6"/>
<line x1="562.231" y1="0.643555" x2="562.231" y2="900.644" stroke="#F6F6F6"/>
<line x1="853.096" y1="0.643555" x2="853.096" y2="900.644" stroke="#F6F6F6"/>
<line x1="707.663" y1="0.643555" x2="707.663" y2="900.644" stroke="#F6F6F6"/>
<line x1="998.528" y1="0.643555" x2="998.528" y2="900.644" stroke="#F6F6F6"/>
<line x1="583.007" y1="0.643555" x2="583.007" y2="900.644" stroke="#F6F6F6"/>
<line x1="873.872" y1="0.643555" x2="873.872" y2="900.644" stroke="#F6F6F6"/>
<line x1="728.439" y1="0.643555" x2="728.439" y2="900.644" stroke="#F6F6F6"/>
<line x1="1019.3" y1="0.643555" x2="1019.3" y2="900.644" stroke="#F6F6F6"/>
<line x1="603.783" y1="0.643555" x2="603.783" y2="900.644" stroke="#F6F6F6"/>
<line x1="894.648" y1="0.643555" x2="894.648" y2="900.644" stroke="#F6F6F6"/>
<line x1="749.216" y1="0.643555" x2="749.216" y2="900.644" stroke="#F6F6F6"/>
<line x1="1040.08" y1="0.643555" x2="1040.08" y2="900.644" stroke="#F6F6F6"/>
<line x1="624.559" y1="0.643555" x2="624.559" y2="900.644" stroke="#F6F6F6"/>
<line x1="915.424" y1="0.643555" x2="915.424" y2="900.644" stroke="#F6F6F6"/>
<line x1="769.992" y1="0.643555" x2="769.992" y2="900.644" stroke="#F6F6F6"/>
<line x1="1060.86" y1="0.643555" x2="1060.86" y2="900.644" stroke="#F6F6F6"/>
<line x1="645.335" y1="0.643555" x2="645.335" y2="900.644" stroke="#F6F6F6"/>
<line x1="936.2" y1="0.643555" x2="936.2" y2="900.644" stroke="#F6F6F6"/>
<line x1="790.768" y1="0.643555" x2="790.768" y2="900.644" stroke="#F6F6F6"/>
<line x1="1081.63" y1="0.643555" x2="1081.63" y2="900.644" stroke="#F6F6F6"/>
<line x1="666.111" y1="0.643555" x2="666.111" y2="900.644" stroke="#F6F6F6"/>
<line x1="956.976" y1="0.643555" x2="956.976" y2="900.644" stroke="#F6F6F6"/>
<line x1="811.544" y1="0.643555" x2="811.544" y2="900.644" stroke="#F6F6F6"/>
<line x1="1102.41" y1="0.643555" x2="1102.41" y2="900.644" stroke="#F6F6F6"/>
<line x1="686.887" y1="0.643555" x2="686.887" y2="900.644" stroke="#F6F6F6"/>
<line x1="977.752" y1="0.643555" x2="977.752" y2="900.644" stroke="#F6F6F6"/>
<line x1="832.32" y1="0.643555" x2="832.32" y2="900.644" stroke="#F6F6F6"/>
<line x1="1123.18" y1="0.643555" x2="1123.18" y2="900.644" stroke="#F6F6F6"/>
<line x1="1122.68" y1="1.14355" x2="561.731" y2="1.14351" stroke="#F6F6F6"/>
<line x1="1122.68" y1="292.009" x2="561.731" y2="292.009" stroke="#F6F6F6"/>
<line x1="1122.68" y1="146.576" x2="561.731" y2="146.576" stroke="#F6F6F6"/>
<line x1="1122.68" y1="437.44" x2="561.731" y2="437.44" stroke="#F6F6F6"/>
<line x1="1122.68" y1="21.9199" x2="561.731" y2="21.9199" stroke="#F6F6F6"/>
<line x1="1122.68" y1="312.784" x2="561.731" y2="312.784" stroke="#F6F6F6"/>
<line x1="1122.68" y1="167.353" x2="561.731" y2="167.352" stroke="#F6F6F6"/>
<line x1="1122.68" y1="458.217" x2="561.731" y2="458.217" stroke="#F6F6F6"/>
<line x1="1122.68" y1="42.6953" x2="561.731" y2="42.6953" stroke="#F6F6F6"/>
<line x1="1122.68" y1="333.561" x2="561.731" y2="333.56" stroke="#F6F6F6"/>
<line x1="1122.68" y1="188.128" x2="561.731" y2="188.128" stroke="#F6F6F6"/>
<line x1="1122.68" y1="478.993" x2="561.731" y2="478.993" stroke="#F6F6F6"/>
<line x1="1122.68" y1="63.4717" x2="561.731" y2="63.4716" stroke="#F6F6F6"/>
<line x1="1122.68" y1="354.337" x2="561.731" y2="354.337" stroke="#F6F6F6"/>
<line x1="1122.68" y1="208.904" x2="561.731" y2="208.904" stroke="#F6F6F6"/>
<line x1="1122.68" y1="499.769" x2="561.731" y2="499.768" stroke="#F6F6F6"/>
<line x1="1122.68" y1="84.248" x2="561.731" y2="84.248" stroke="#F6F6F6"/>
<line x1="1122.68" y1="375.112" x2="561.731" y2="375.112" stroke="#F6F6F6"/>
<line x1="1122.68" y1="229.681" x2="561.731" y2="229.681" stroke="#F6F6F6"/>
<line x1="1122.68" y1="520.545" x2="561.731" y2="520.545" stroke="#F6F6F6"/>
<line x1="1122.68" y1="105.023" x2="561.731" y2="105.023" stroke="#F6F6F6"/>
<line x1="1122.68" y1="395.889" x2="561.731" y2="395.889" stroke="#F6F6F6"/>
<line x1="1122.68" y1="250.456" x2="561.731" y2="250.456" stroke="#F6F6F6"/>
<line x1="1122.68" y1="541.321" x2="561.731" y2="541.321" stroke="#F6F6F6"/>
<line x1="1122.68" y1="125.8" x2="561.731" y2="125.8" stroke="#F6F6F6"/>
<line x1="1122.68" y1="416.665" x2="561.731" y2="416.665" stroke="#F6F6F6"/>
<line x1="1122.68" y1="271.232" x2="561.731" y2="271.232" stroke="#F6F6F6"/>
<line x1="1122.68" y1="562.098" x2="561.731" y2="562.098" stroke="#F6F6F6"/>
<line x1="1122.68" y1="852.963" x2="561.731" y2="852.963" stroke="#F6F6F6"/>
<line x1="1122.68" y1="707.529" x2="561.731" y2="707.529" stroke="#F6F6F6"/>
<line x1="1122.68" y1="582.874" x2="561.731" y2="582.874" stroke="#F6F6F6"/>
<line x1="1122.68" y1="873.738" x2="561.731" y2="873.738" stroke="#F6F6F6"/>
<line x1="1122.68" y1="728.307" x2="561.731" y2="728.307" stroke="#F6F6F6"/>
<line x1="1122.68" y1="603.649" x2="561.731" y2="603.649" stroke="#F6F6F6"/>
<line x1="1122.68" y1="894.516" x2="561.731" y2="894.516" stroke="#F6F6F6"/>
<line x1="1122.68" y1="749.082" x2="561.731" y2="749.082" stroke="#F6F6F6"/>
<line x1="1122.68" y1="624.426" x2="561.731" y2="624.426" stroke="#F6F6F6"/>
<line x1="1122.68" y1="769.857" x2="561.731" y2="769.857" stroke="#F6F6F6"/>
<line x1="1122.68" y1="645.201" x2="561.731" y2="645.201" stroke="#F6F6F6"/>
<line x1="1122.68" y1="790.635" x2="561.731" y2="790.635" stroke="#F6F6F6"/>
<line x1="1122.68" y1="665.979" x2="561.731" y2="665.978" stroke="#F6F6F6"/>
<line x1="1122.68" y1="811.41" x2="561.731" y2="811.41" stroke="#F6F6F6"/>
<line x1="1122.68" y1="686.754" x2="561.731" y2="686.754" stroke="#F6F6F6"/>
<line x1="1122.68" y1="832.188" x2="561.731" y2="832.187" stroke="#F6F6F6"/>
<line x1="1.27734" y1="0.643555" x2="1.2773" y2="900.644" stroke="#F6F6F6"/>
<line x1="292.142" y1="0.643555" x2="292.142" y2="900.644" stroke="#F6F6F6"/>
<line x1="146.71" y1="0.643555" x2="146.71" y2="900.644" stroke="#F6F6F6"/>
<line x1="437.575" y1="0.643555" x2="437.575" y2="900.644" stroke="#F6F6F6"/>
<line x1="22.0535" y1="0.643555" x2="22.0534" y2="900.644" stroke="#F6F6F6"/>
<line x1="312.918" y1="0.643555" x2="312.918" y2="900.644" stroke="#F6F6F6"/>
<line x1="167.486" y1="0.643555" x2="167.486" y2="900.644" stroke="#F6F6F6"/>
<line x1="458.351" y1="0.643555" x2="458.351" y2="900.644" stroke="#F6F6F6"/>
<line x1="42.8296" y1="0.643555" x2="42.8296" y2="900.644" stroke="#F6F6F6"/>
<line x1="333.694" y1="0.643555" x2="333.694" y2="900.644" stroke="#F6F6F6"/>
<line x1="188.262" y1="0.643555" x2="188.262" y2="900.644" stroke="#F6F6F6"/>
<line x1="479.127" y1="0.643555" x2="479.127" y2="900.644" stroke="#F6F6F6"/>
<line x1="63.6055" y1="0.643555" x2="63.6054" y2="900.644" stroke="#F6F6F6"/>
<line x1="354.47" y1="0.643555" x2="354.47" y2="900.644" stroke="#F6F6F6"/>
<line x1="209.038" y1="0.643555" x2="209.038" y2="900.644" stroke="#F6F6F6"/>
<line x1="499.903" y1="0.643555" x2="499.903" y2="900.644" stroke="#F6F6F6"/>
<line x1="84.3816" y1="0.643555" x2="84.3816" y2="900.644" stroke="#F6F6F6"/>
<line x1="375.247" y1="0.643555" x2="375.247" y2="900.644" stroke="#F6F6F6"/>
<line x1="229.814" y1="0.643555" x2="229.814" y2="900.644" stroke="#F6F6F6"/>
<line x1="520.679" y1="0.643555" x2="520.679" y2="900.644" stroke="#F6F6F6"/>
<line x1="105.158" y1="0.643555" x2="105.158" y2="900.644" stroke="#F6F6F6"/>
<line x1="396.022" y1="0.643555" x2="396.022" y2="900.644" stroke="#F6F6F6"/>
<line x1="250.59" y1="0.643555" x2="250.59" y2="900.644" stroke="#F6F6F6"/>
<line x1="541.455" y1="0.643555" x2="541.455" y2="900.644" stroke="#F6F6F6"/>
<line x1="125.934" y1="0.643555" x2="125.934" y2="900.644" stroke="#F6F6F6"/>
<line x1="416.799" y1="0.643555" x2="416.799" y2="900.644" stroke="#F6F6F6"/>
<line x1="271.366" y1="0.643555" x2="271.366" y2="900.644" stroke="#F6F6F6"/>
<line x1="562.231" y1="0.643555" x2="562.231" y2="900.644" stroke="#F6F6F6"/>
<line x1="561.731" y1="1.14355" x2="0.777344" y2="1.14351" stroke="#F6F6F6"/>
<line x1="561.731" y1="292.009" x2="0.777344" y2="292.009" stroke="#F6F6F6"/>
<line x1="561.731" y1="146.576" x2="0.777344" y2="146.576" stroke="#F6F6F6"/>
<line x1="561.731" y1="437.44" x2="0.777344" y2="437.44" stroke="#F6F6F6"/>
<line x1="561.731" y1="21.9199" x2="0.777344" y2="21.9199" stroke="#F6F6F6"/>
<line x1="561.731" y1="312.784" x2="0.777344" y2="312.784" stroke="#F6F6F6"/>
<line x1="561.731" y1="167.353" x2="0.777344" y2="167.352" stroke="#F6F6F6"/>
<line x1="561.731" y1="458.217" x2="0.777344" y2="458.217" stroke="#F6F6F6"/>
<line x1="561.731" y1="42.6953" x2="0.777344" y2="42.6953" stroke="#F6F6F6"/>
<line x1="561.731" y1="333.561" x2="0.777344" y2="333.56" stroke="#F6F6F6"/>
<line x1="561.731" y1="188.128" x2="0.777344" y2="188.128" stroke="#F6F6F6"/>
<line x1="561.731" y1="478.993" x2="0.777344" y2="478.993" stroke="#F6F6F6"/>
<line x1="561.731" y1="63.4717" x2="0.777344" y2="63.4716" stroke="#F6F6F6"/>
<line x1="561.731" y1="354.337" x2="0.777344" y2="354.337" stroke="#F6F6F6"/>
<line x1="561.731" y1="208.904" x2="0.777344" y2="208.904" stroke="#F6F6F6"/>
<line x1="561.731" y1="499.769" x2="0.777344" y2="499.768" stroke="#F6F6F6"/>
<line x1="561.731" y1="84.248" x2="0.777344" y2="84.248" stroke="#F6F6F6"/>
<line x1="561.731" y1="375.112" x2="0.777344" y2="375.112" stroke="#F6F6F6"/>
<line x1="561.731" y1="229.681" x2="0.777344" y2="229.681" stroke="#F6F6F6"/>
<line x1="561.731" y1="520.545" x2="0.777344" y2="520.545" stroke="#F6F6F6"/>
<line x1="561.731" y1="105.023" x2="0.777344" y2="105.023" stroke="#F6F6F6"/>
<line x1="561.731" y1="395.889" x2="0.777344" y2="395.889" stroke="#F6F6F6"/>
<line x1="561.731" y1="250.456" x2="0.777344" y2="250.456" stroke="#F6F6F6"/>
<line x1="561.731" y1="541.321" x2="0.777344" y2="541.321" stroke="#F6F6F6"/>
<line x1="561.731" y1="125.8" x2="0.777344" y2="125.8" stroke="#F6F6F6"/>
<line x1="561.731" y1="416.665" x2="0.777344" y2="416.665" stroke="#F6F6F6"/>
<line x1="561.731" y1="271.232" x2="0.777344" y2="271.232" stroke="#F6F6F6"/>
<line x1="561.731" y1="562.098" x2="0.777344" y2="562.098" stroke="#F6F6F6"/>
<line x1="561.731" y1="852.963" x2="0.777344" y2="852.963" stroke="#F6F6F6"/>
<line x1="561.731" y1="707.529" x2="0.777344" y2="707.529" stroke="#F6F6F6"/>
<line x1="561.731" y1="582.874" x2="0.777344" y2="582.874" stroke="#F6F6F6"/>
<line x1="561.731" y1="873.738" x2="0.777344" y2="873.738" stroke="#F6F6F6"/>
<line x1="561.731" y1="728.307" x2="0.777344" y2="728.307" stroke="#F6F6F6"/>
<line x1="561.731" y1="603.649" x2="0.777344" y2="603.649" stroke="#F6F6F6"/>
<line x1="561.731" y1="894.516" x2="0.777344" y2="894.516" stroke="#F6F6F6"/>
<line x1="561.731" y1="749.082" x2="0.777344" y2="749.082" stroke="#F6F6F6"/>
<line x1="561.731" y1="624.426" x2="0.777344" y2="624.426" stroke="#F6F6F6"/>
<line x1="561.731" y1="769.857" x2="0.777344" y2="769.857" stroke="#F6F6F6"/>
<line x1="561.731" y1="645.201" x2="0.777344" y2="645.201" stroke="#F6F6F6"/>
<line x1="561.731" y1="790.635" x2="0.777344" y2="790.635" stroke="#F6F6F6"/>
<line x1="561.731" y1="665.979" x2="0.777344" y2="665.978" stroke="#F6F6F6"/>
<line x1="561.731" y1="811.41" x2="0.777344" y2="811.41" stroke="#F6F6F6"/>
<line x1="561.731" y1="686.754" x2="0.777344" y2="686.754" stroke="#F6F6F6"/>
<line x1="561.731" y1="832.188" x2="0.777344" y2="832.187" stroke="#F6F6F6"/>
</svg>
